# xmcd
#
# Track frame offsets: 
#        150
#        11672
#        23195
#        38377
#        57172
#        76625
#        94860
#        112992
#        123757
#        148725
#        169775
#
# Disc length: 2508 seconds
#
# Revision: 2
# Processed by: cddbd v1.4PL0 Copyright (c) Steve Scherf et al.
# Submitted via: ExactAudioCopy v0.95a3
#
DISCID=7a09ca0b
DTITLE=Ray Wylie Hubbard - Lost Train Of Thought
DYEAR=1995
DGENRE=
TTITLE0=Here Comes The Night
TTITLE1=Sweet Lips Goodbye
TTITLE2=Basics Of Love
TTITLE3=These Eyes (With Willie Nelson)
TTITLE4=When She Sang Amazing Grace
TTITLE5=Runaway Freight Train
TTITLE6=Portales
TTITLE7=Rockabilly Rock
TTITLE8=Love In Vain
TTITLE9=Twist Of Fate
TTITLE10=Wanna Rock And Roll
EXTD=
EXTT0=
EXTT1=
EXTT2=
EXTT3=
EXTT4=
EXTT5=
EXTT6=
EXTT7=
EXTT8=
EXTT9=
EXTT10=
PLAYORDER=
